# xmcd
#
# Track frame offsets: 
#        150
#        13867
#        30094
#        57497
#        85262
#        106166
#        121637
#        145338
#        156225
#        173541
#        202202
#
# Disc length: 2938 seconds
#
# Revision: 0
# Processed by: cddbd v1.5.2PL0 Copyright (c) Steve Scherf et al.
# Submitted via: ExactAudioCopy v0.95b4
#
DISCID=880b780b
DTITLE=Ricky Skaggs and Bruce Hornsby - Ricky Skaggs and Bruce Hornsby
DYEAR=2007
DGENRE=Bluegrass
TTITLE0=01 The Dreaded Spoon
TTITLE1=02 Gulf of Mexico Fishing Boat Blues
TTITLE2=03 Across the Rocky Mountains
TTITLE3=04 Mandolin Rain
TTITLE4=05 Stubb
TTITLE5=06 Come On Out
TTITLE6=07 A Night On The Town
TTITLE7=08 Sheep Shell Corn
TTITLE8=09 Hills of Mexico
TTITLE9=10 Crown of Jewels
TTITLE10=Super Freak
EXTD=
EXTT0=
EXTT1=
EXTT2=
EXTT3=
EXTT4=
EXTT5=
EXTT6=
EXTT7=
EXTT8=
EXTT9=
EXTT10=
PLAYORDER=
